<?xml version="1.0" encoding="utf-8"?>
<!-- Generator: Adobe Illustrator 23.0.3, SVG Export Plug-In . SVG Version: 6.00 Build 0)  -->
<svg version="1.1" id="Capa_1" xmlns="http://www.w3.org/2000/svg" xmlns:xlink="http://www.w3.org/1999/xlink" x="0px" y="0px"
	 viewBox="0 0 121 154" style="enable-background:new 0 0 121 154;" xml:space="preserve">
<style type="text/css">
	.st0{fill:#578DB0;}
	.st1{fill:#81BEDE;}
</style>
<polygon class="st0" points="113.88,52.48 113.88,53.86 68.92,53.86 68.92,10.63 69.79,10.63 "/>
<path class="st1" d="M113.88,53.86v86.46c0,2.94-2.25,5.19-5.19,5.19H15.32c-2.94,0-5.19-2.25-5.19-5.19V15.82
	c0-2.94,2.25-5.19,5.19-5.19h53.6v38.04c0,2.94,2.25,5.19,5.19,5.19H113.88z"/>
<path class="st0" d="M86.21,104.01H36.07c-2.94,0-5.19-2.25-5.19-5.19c0-2.94,2.25-5.19,5.19-5.19h50.15c2.94,0,5.19,2.25,5.19,5.19
	C91.4,101.76,89.15,104.01,86.21,104.01"/>
<path class="st0" d="M65.46,83.26h-29.4c-2.94,0-5.19-2.25-5.19-5.19c0-2.94,2.25-5.19,5.19-5.19h29.4c2.94,0,5.19,2.25,5.19,5.19
	C70.65,81.01,68.4,83.26,65.46,83.26"/>
<path class="st0" d="M86.21,124.76H36.07c-2.94,0-5.19-2.25-5.19-5.19c0-2.94,2.25-5.19,5.19-5.19h50.15c2.94,0,5.19,2.25,5.19,5.19
	C91.4,122.51,89.15,124.76,86.21,124.76"/>
</svg>
